<svg width="64" height="64" viewBox="0 0 64 64" fill="none" xmlns="http://www.w3.org/2000/svg">
  <rect x="1" y="1" width="62" height="62" rx="15" fill="#059669"/>
  <rect x="1" y="1" width="62" height="62" rx="15" stroke="#047857" stroke-width="1"/>
  <path
    d="M32,9 C36.5,12.3 42,14.2 48,14.2 L48,30.5 C48,42.8 41,49.8 32,55 C23,49.8 16,42.8 16,30.5 L16,14.2 C22,14.2 27.5,12.3 32,9 Z"
    fill="white"
    fill-opacity="0.14"
  />
  <path
    d="M32,9 C36.5,12.3 42,14.2 48,14.2 L48,30.5 C48,42.8 41,49.8 32,55 C23,49.8 16,42.8 16,30.5 L16,14.2 C22,14.2 27.5,12.3 32,9 Z"
    fill="none"
    stroke="white"
    stroke-width="2.5"
    stroke-linejoin="round"
  />
  <path d="M23.5,31 L29.5,37 L41,23.5" fill="none" stroke="white" stroke-width="5" stroke-linecap="round" stroke-linejoin="round"/>
</svg>
